<svg xmlns="http://www.w3.org/2000/svg" xmlns:xlink="http://www.w3.org/1999/xlink" width="375" viewBox="0 0 375 375" height="375" version="1.0"><defs><g id="b"><path d="M 25.890625 -10.046875 C 25.890625 -6.773438 24.710938 -4.195312 22.359375 -2.3125 C 20.015625 -0.4375 16.75 0.5 12.5625 0.5 C 8.707031 0.5 5.296875 -0.226562 2.328125 -1.6875 L 2.328125 -8.8125 C 4.765625 -7.71875 6.828125 -6.945312 8.515625 -6.5 C 10.210938 -6.0625 11.757812 -5.84375 13.15625 -5.84375 C 14.84375 -5.84375 16.132812 -6.160156 17.03125 -6.796875 C 17.925781 -7.441406 18.375 -8.398438 18.375 -9.671875 C 18.375 -10.378906 18.175781 -11.007812 17.78125 -11.5625 C 17.382812 -12.113281 16.800781 -12.644531 16.03125 -13.15625 C 15.269531 -13.664062 13.710938 -14.484375 11.359375 -15.609375 C 9.140625 -16.648438 7.476562 -17.644531 6.375 -18.59375 C 5.269531 -19.550781 4.390625 -20.664062 3.734375 -21.9375 C 3.078125 -23.207031 2.75 -24.691406 2.75 -26.390625 C 2.75 -29.585938 3.832031 -32.101562 6 -33.9375 C 8.164062 -35.769531 11.160156 -36.6875 14.984375 -36.6875 C 16.867188 -36.6875 18.660156 -36.460938 20.359375 -36.015625 C 22.066406 -35.566406 23.851562 -34.941406 25.71875 -34.140625 L 23.25 -28.171875 C 21.320312 -28.960938 19.726562 -29.515625 18.46875 -29.828125 C 17.207031 -30.140625 15.960938 -30.296875 14.734375 -30.296875 C 13.285156 -30.296875 12.171875 -29.957031 11.390625 -29.28125 C 10.617188 -28.601562 10.234375 -27.722656 10.234375 -26.640625 C 10.234375 -25.960938 10.390625 -25.367188 10.703125 -24.859375 C 11.023438 -24.359375 11.523438 -23.875 12.203125 -23.40625 C 12.890625 -22.9375 14.507812 -22.09375 17.0625 -20.875 C 20.445312 -19.257812 22.765625 -17.640625 24.015625 -16.015625 C 25.265625 -14.390625 25.890625 -12.398438 25.890625 -10.046875 Z M 25.890625 -10.046875"/></g><g id="c"><path d="M 18.5 0 L 10.828125 0 L 10.828125 -29.78125 L 1.015625 -29.78125 L 1.015625 -36.15625 L 28.328125 -36.15625 L 28.328125 -29.78125 L 18.5 -29.78125 Z M 18.5 0"/></g><g id="d"><path d="M 33.984375 -36.15625 L 33.984375 -12.765625 C 33.984375 -10.085938 33.382812 -7.742188 32.1875 -5.734375 C 31 -3.722656 29.273438 -2.179688 27.015625 -1.109375 C 24.753906 -0.0351562 22.082031 0.5 19 0.5 C 14.34375 0.5 10.726562 -0.691406 8.15625 -3.078125 C 5.582031 -5.460938 4.296875 -8.722656 4.296875 -12.859375 L 4.296875 -36.15625 L 11.953125 -36.15625 L 11.953125 -14.03125 C 11.953125 -11.238281 12.507812 -9.191406 13.625 -7.890625 C 14.75 -6.585938 16.601562 -5.9375 19.1875 -5.9375 C 21.695312 -5.9375 23.515625 -6.59375 24.640625 -7.90625 C 25.773438 -9.21875 26.34375 -11.273438 26.34375 -14.078125 L 26.34375 -36.15625 Z M 33.984375 -36.15625"/></g><g id="e"><path d="M 19.90625 -30.296875 C 17.019531 -30.296875 14.785156 -29.210938 13.203125 -27.046875 C 11.617188 -24.878906 10.828125 -21.859375 10.828125 -17.984375 C 10.828125 -9.921875 13.851562 -5.890625 19.90625 -5.890625 C 22.445312 -5.890625 25.523438 -6.523438 29.140625 -7.796875 L 29.140625 -1.359375 C 26.171875 -0.117188 22.851562 0.5 19.1875 0.5 C 13.925781 0.5 9.898438 -1.09375 7.109375 -4.28125 C 4.328125 -7.476562 2.9375 -12.0625 2.9375 -18.03125 C 2.9375 -21.789062 3.617188 -25.082031 4.984375 -27.90625 C 6.359375 -30.738281 8.328125 -32.910156 10.890625 -34.421875 C 13.453125 -35.929688 16.457031 -36.6875 19.90625 -36.6875 C 23.425781 -36.6875 26.957031 -35.835938 30.5 -34.140625 L 28.03125 -27.90625 C 26.675781 -28.539062 25.3125 -29.097656 23.9375 -29.578125 C 22.570312 -30.054688 21.226562 -30.296875 19.90625 -30.296875 Z M 19.90625 -30.296875"/></g><g id="f"><path d="M 33.640625 0 L 24.9375 0 L 15.453125 -15.234375 L 12.21875 -12.90625 L 12.21875 0 L 4.546875 0 L 4.546875 -36.15625 L 12.21875 -36.15625 L 12.21875 -19.609375 L 15.234375 -23.875 L 25.03125 -36.15625 L 33.546875 -36.15625 L 20.921875 -20.15625 Z M 33.640625 0"/></g><clipPath id="a"><path d="M 9.609375 122.09375 L 156.230469 122.09375 L 156.230469 265.878906 L 9.609375 265.878906 Z M 9.609375 122.09375"/></clipPath></defs><g clip-path="url(#a)"><path fill="#DC661F" d="M 36.496094 211.519531 C 28.191406 210.191406 20.949219 205.671875 16.078125 199.269531 C 15.964844 199.128906 15.855469 198.980469 15.753906 198.835938 C 13.667969 196 12.042969 192.8125 10.996094 189.371094 C 10.519531 187.851562 10.171875 186.292969 9.941406 184.6875 C 9.71875 183.191406 9.609375 181.671875 9.609375 180.117188 C 9.609375 178.773438 9.695312 177.453125 9.859375 176.152344 C 10.410156 171.742188 11.871094 167.617188 14.054688 163.957031 C 15.671875 161.230469 17.699219 158.765625 20.035156 156.640625 C 24.535156 152.546875 30.21875 149.71875 36.496094 148.710938 L 127.167969 148.710938 C 129.488281 147.394531 131.261719 145.210938 132.019531 142.613281 C 132.296875 141.691406 132.445312 140.714844 132.445312 139.710938 L 132.445312 138.804688 C 132.445312 134.371094 129.609375 130.566406 125.652344 129.09375 C 123.941406 128.847656 122.1875 128.726562 120.410156 128.726562 L 81 128.726562 C 79.109375 128.726562 77.253906 128.867188 75.441406 129.136719 C 75.429688 129.136719 75.417969 129.136719 75.40625 129.140625 C 75.273438 129.160156 75.144531 129.175781 75.007812 129.199219 C 65.679688 130.691406 57.488281 135.609375 51.789062 142.613281 L 40.863281 142.613281 C 48.238281 131.070312 60.878906 123.164062 75.402344 122.265625 C 76.316406 122.210938 77.238281 122.179688 78.164062 122.179688 L 124.46875 122.179688 C 124.652344 122.179688 124.839844 122.179688 125.019531 122.1875 C 131.394531 123.929688 136.496094 127.914062 138.90625 132.980469 C 139.03125 133.242188 139.148438 133.507812 139.257812 133.773438 C 140.007812 135.589844 140.410156 137.539062 140.410156 139.558594 C 140.410156 140.597656 140.308594 141.617188 140.09375 142.609375 C 139.648438 144.796875 138.710938 146.855469 137.394531 148.707031 C 134.84375 152.285156 130.835938 155.109375 126.027344 156.636719 L 36.464844 156.636719 C 35.949219 156.769531 35.445312 156.921875 34.945312 157.082031 L 34.945312 157.085938 C 34.832031 157.117188 34.722656 157.15625 34.609375 157.191406 C 34.492188 157.230469 34.382812 157.269531 34.265625 157.3125 C 30.253906 158.726562 26.707031 161.03125 23.929688 163.953125 C 20.71875 167.328125 18.515625 171.527344 17.742188 176.148438 C 17.546875 177.34375 17.445312 178.5625 17.445312 179.808594 C 17.445312 181.269531 17.585938 182.710938 17.859375 184.101562 C 17.894531 184.296875 17.941406 184.492188 17.984375 184.6875 C 18.621094 187.535156 19.8125 190.203125 21.441406 192.589844 C 21.539062 192.738281 21.644531 192.875 21.742188 193.015625 C 26.425781 199.566406 34.484375 203.894531 43.617188 203.894531 L 55.730469 203.894531 C 55.546875 203.785156 55.363281 203.675781 55.179688 203.566406 C 47.8125 199.082031 41.859375 192.507812 38.164062 184.683594 C 38.148438 184.648438 38.128906 184.609375 38.117188 184.574219 C 38.035156 184.414062 37.964844 184.257812 37.890625 184.097656 C 36.964844 182.058594 36.191406 179.9375 35.582031 177.742188 C 35.433594 177.210938 35.300781 176.679688 35.171875 176.144531 C 34.402344 172.910156 34 169.542969 34 166.082031 C 34 165.371094 34.019531 164.65625 34.046875 163.949219 L 42.953125 163.949219 C 42.910156 164.65625 42.894531 165.363281 42.894531 166.082031 C 42.894531 169.566406 43.367188 172.933594 44.261719 176.144531 C 44.371094 176.550781 44.492188 176.960938 44.621094 177.363281 C 45.242188 179.34375 46.027344 181.257812 46.953125 183.082031 C 47.039062 183.257812 47.128906 183.429688 47.222656 183.601562 C 47.414062 183.96875 47.609375 184.328125 47.8125 184.679688 C 50.746094 189.851562 54.875 194.265625 59.816406 197.5625 C 59.945312 197.652344 60.070312 197.730469 60.199219 197.8125 C 62.945312 199.597656 65.933594 201.042969 69.109375 202.074219 C 69.222656 202.117188 69.332031 202.15625 69.449219 202.183594 C 70.976562 202.671875 72.542969 203.0625 74.140625 203.351562 C 74.148438 203.351562 74.148438 203.351562 74.148438 203.351562 C 74.503906 203.417969 74.859375 203.476562 75.214844 203.527344 C 75.222656 203.53125 75.226562 203.53125 75.226562 203.527344 C 75.285156 203.539062 75.335938 203.550781 75.398438 203.554688 C 77.226562 203.824219 79.089844 203.964844 80.992188 203.964844 L 89.503906 203.964844 L 89.503906 211.515625 L 80.269531 211.515625 C 78.683594 211.769531 77.058594 211.910156 75.402344 211.917969 C 75.320312 211.921875 75.234375 211.921875 75.15625 211.921875 L 41.609375 211.921875 C 39.867188 211.929688 38.15625 211.789062 36.496094 211.519531 Z M 154.949219 198.652344 C 154.921875 198.539062 154.886719 198.421875 154.839844 198.300781 C 154.816406 198.207031 154.785156 198.113281 154.753906 198.011719 C 153.765625 194.890625 152.304688 191.976562 150.453125 189.355469 C 150.347656 189.207031 150.242188 189.058594 150.136719 188.917969 C 149.039062 187.398438 147.796875 185.992188 146.449219 184.691406 C 141.855469 180.277344 135.933594 177.210938 129.339844 176.15625 L 75.402344 176.15625 L 75.402344 183.613281 L 86.0625 183.613281 C 87.226562 183.613281 88.375 183.667969 89.507812 183.769531 C 90.089844 183.820312 90.664062 183.886719 91.230469 183.96875 C 91.238281 183.96875 91.238281 183.96875 91.238281 183.96875 C 91.679688 184.027344 92.109375 184.097656 92.542969 184.175781 C 92.542969 184.175781 92.542969 184.175781 92.550781 184.175781 C 93.390625 184.316406 94.226562 184.492188 95.039062 184.695312 C 95.332031 184.761719 95.621094 184.839844 95.914062 184.921875 C 96.023438 184.949219 96.140625 184.980469 96.25 185.015625 C 99.667969 185.96875 102.882812 187.390625 105.832031 189.214844 C 105.960938 189.296875 106.089844 189.371094 106.21875 189.453125 C 111.683594 192.925781 116.191406 197.753906 119.242188 203.460938 C 119.34375 203.628906 121.894531 207.910156 122.53125 210.003906 C 122.5625 210.101562 124.160156 217.71875 124.160156 220.980469 C 124.160156 222.320312 124.09375 223.644531 123.953125 224.941406 L 132.003906 224.941406 C 132.089844 223.832031 132.132812 222.71875 132.132812 221.589844 C 132.132812 218.132812 131.726562 214.757812 130.960938 211.527344 C 130.855469 211.074219 130.746094 210.628906 130.621094 210.191406 C 130.597656 210.085938 130.488281 209.691406 130.457031 209.59375 C 129.832031 207.390625 129.035156 205.257812 128.078125 203.207031 C 128.003906 203.042969 127.929688 202.875 127.851562 202.71875 C 124.339844 195.375 118.851562 189.136719 112.082031 184.691406 L 127.296875 184.691406 C 134.179688 186.125 140.019531 190.089844 143.613281 195.460938 C 143.703125 195.605469 143.800781 195.753906 143.894531 195.898438 C 145.421875 198.300781 146.507812 200.972656 147.035156 203.816406 C 147.058594 203.914062 147.074219 204.007812 147.089844 204.105469 C 147.113281 204.222656 147.128906 204.339844 147.140625 204.457031 C 147.320312 205.574219 147.410156 206.703125 147.410156 207.863281 C 147.410156 209.109375 147.308594 210.335938 147.105469 211.523438 C 146.222656 216.75 143.480469 221.421875 139.523438 224.941406 C 137.175781 227.03125 134.402344 228.710938 131.335938 229.863281 C 131.320312 229.996094 68.195312 230.8125 67.757812 230.378906 L 49.269531 230.378906 C 46.28125 230.378906 43.425781 230.824219 40.800781 231.648438 C 36.152344 233.082031 32.234375 235.675781 29.609375 238.96875 C 28.277344 240.640625 27.277344 242.488281 26.679688 244.457031 C 26.269531 245.828125 26.046875 247.253906 26.046875 248.726562 C 26.046875 250.035156 26.21875 251.3125 26.550781 252.542969 L 26.554688 252.542969 C 26.617188 252.792969 26.691406 253.042969 26.773438 253.289062 C 28.636719 259.015625 33.910156 263.667969 40.785156 265.796875 C 40.976562 265.800781 41.171875 265.800781 41.363281 265.800781 L 87.667969 265.800781 C 88.289062 265.800781 88.898438 265.789062 89.507812 265.765625 C 101.007812 265.289062 111.417969 260.421875 119.070312 252.8125 C 121.589844 250.308594 123.816406 247.5 125.675781 244.460938 L 115.933594 244.460938 C 110.53125 251.253906 102.835938 256.164062 94.015625 258.035156 L 94.007812 258.035156 C 93.863281 258.0625 93.722656 258.09375 93.570312 258.125 C 92.238281 258.386719 90.882812 258.589844 89.507812 258.703125 C 88.371094 258.808594 87.222656 258.863281 86.0625 258.863281 L 46.652344 258.863281 C 44.792969 258.863281 42.960938 258.726562 41.167969 258.464844 L 41.160156 258.464844 C 40.566406 258.246094 39.988281 257.972656 39.449219 257.648438 C 39.449219 257.648438 39.449219 257.648438 39.445312 257.648438 C 36.378906 255.839844 34.3125 252.515625 34.3125 248.730469 C 34.3125 247.203125 34.644531 245.757812 35.242188 244.460938 C 35.765625 243.3125 36.488281 242.28125 37.371094 241.40625 C 38.449219 240.339844 39.757812 239.496094 41.214844 238.972656 L 129.335938 238.972656 C 135.300781 238.015625 140.71875 235.417969 145.105469 231.652344 C 147.371094 229.707031 149.367188 227.453125 151.015625 224.945312 C 153.617188 220.996094 155.359375 216.433594 155.980469 211.527344 C 156.136719 210.230469 156.222656 208.90625 156.222656 207.566406 C 156.226562 204.46875 155.777344 201.480469 154.949219 198.652344 Z M 154.949219 198.652344"/></g><g fill="#545454"><use x="183.598" y="213.257" xmlns:xlink="http://www.w3.org/1999/xlink" xlink:href="#b" xlink:type="simple" xlink:actuate="onLoad" xlink:show="embed"/></g><g fill="#545454"><use x="216.509" y="213.257" xmlns:xlink="http://www.w3.org/1999/xlink" xlink:href="#c" xlink:type="simple" xlink:actuate="onLoad" xlink:show="embed"/></g><g fill="#545454"><use x="250.855" y="213.257" xmlns:xlink="http://www.w3.org/1999/xlink" xlink:href="#d" xlink:type="simple" xlink:actuate="onLoad" xlink:show="embed"/></g><g fill="#545454"><use x="294.152" y="213.257" xmlns:xlink="http://www.w3.org/1999/xlink" xlink:href="#e" xlink:type="simple" xlink:actuate="onLoad" xlink:show="embed"/></g><g fill="#545454"><use x="331.44" y="213.257" xmlns:xlink="http://www.w3.org/1999/xlink" xlink:href="#f" xlink:type="simple" xlink:actuate="onLoad" xlink:show="embed"/></g></svg>